<svg width="28" height="28" viewBox="0 0 28 28" fill="none" xmlns="http://www.w3.org/2000/svg">
<path d="M14 12.9231V19.0769V12.9231ZM17.0769 16H10.9231H17.0769ZM15.0872 8.62564L12.9128 6.45128C12.77 6.30826 12.6003 6.19479 12.4136 6.11735C12.2269 6.03992 12.0268 6.00004 11.8246 6H6.30769C5.69565 6 5.10868 6.24313 4.67591 6.67591C4.24313 7.10868 4 7.69565 4 8.30769V20.6154C4 21.2274 4.24313 21.8144 4.67591 22.2472C5.10868 22.6799 5.69565 22.9231 6.30769 22.9231H21.6923C22.3043 22.9231 22.8913 22.6799 23.3241 22.2472C23.7569 21.8144 24 21.2274 24 20.6154V11.3846C24 10.7726 23.7569 10.1856 23.3241 9.75283C22.8913 9.32005 22.3043 9.07692 21.6923 9.07692H16.1754C15.7675 9.07656 15.3754 8.91424 15.0872 8.62564Z" fill="#A4A4A4"/>
</svg>
