<svg width="28" height="28" viewBox="0 0 28 28" fill="none" xmlns="http://www.w3.org/2000/svg">
<g clip-path="url(#clip0_2347_259)">
<rect width="28" height="28" rx="14" fill="#F0F2F3"/>
<path d="M7 14.5455V14C7 13.566 7.17019 13.1498 7.47314 12.8429C7.77608 12.536 8.18696 12.3636 8.61538 12.3636H19.3846C19.813 12.3636 20.2239 12.536 20.5269 12.8429C20.8298 13.1498 21 13.566 21 14V14.5455M14.761 9.86182L13.239 8.32C13.139 8.21858 13.0202 8.13812 12.8895 8.08322C12.7588 8.02831 12.6187 8.00003 12.4772 8H8.61538C8.18696 8 7.77608 8.1724 7.47314 8.47928C7.17019 8.78616 7 9.20237 7 9.63636V18.3636C7 18.7976 7.17019 19.2138 7.47314 19.5207C7.77608 19.8276 8.18696 20 8.61538 20H19.3846C19.813 20 20.2239 19.8276 20.5269 19.5207C20.8298 19.2138 21 18.7976 21 18.3636V11.8182C21 11.3842 20.8298 10.968 20.5269 10.6611C20.2239 10.3542 19.813 10.1818 19.3846 10.1818H15.5228C15.2372 10.1816 14.9628 10.0665 14.761 9.86182Z" stroke="#424244" stroke-width="1.5" stroke-linecap="round" stroke-linejoin="round"/>
</g>
<defs>
<clipPath id="clip0_2347_259">
<rect width="28" height="28" rx="14" fill="white"/>
</clipPath>
</defs>
</svg>
