<svg width="122" height="34" viewBox="0 0 122 34" fill="none" xmlns="http://www.w3.org/2000/svg">
<path d="M41.2876 7.98932H46.9443C52.4705 7.98932 55.2771 10.9376 55.2771 16.0903V16.2755C55.2771 21.4515 52.4057 24.585 46.9231 24.585H41.2886V7.98932H41.2876ZM46.7915 20.9181C49.4453 20.9181 50.6203 19.4323 50.6203 16.3454V16.1601C50.6203 13.0034 49.4453 11.6572 46.748 11.6572H45.7692V20.9191H46.7915V20.9181Z" fill="#2524D1"/>
<path d="M56.4946 18.6662V18.481C56.4946 14.5813 59.2142 12.1208 62.7384 12.1208C66.2413 12.1208 68.9386 14.5115 68.9386 18.3646V18.5498C68.9386 22.4961 66.219 24.8634 62.7161 24.8634C59.2142 24.8644 56.4946 22.5892 56.4946 18.6662ZM64.9792 18.5974V18.4122C64.9792 16.3697 64.2181 15.2321 62.7384 15.2321C61.2809 15.2321 60.4763 16.3232 60.4763 18.3656V18.5508C60.4763 20.6398 61.2374 21.7775 62.7384 21.7775C64.1958 21.7775 64.9792 20.6166 64.9792 18.5974Z" fill="#2524D1"/>
<path d="M73.5509 23.3554L69.0034 12.4457H73.2239L75.5731 18.9223L77.7491 12.4457H81.4697L75.3777 28.6477H71.6572L73.5509 23.3554Z" fill="#2524D1"/>
<path d="M81.5347 18.6662V18.481C81.5347 14.5813 84.2542 12.1208 87.6914 12.1208C90.8026 12.1208 93.4787 14.0246 93.4787 18.3879V19.4789H85.4728C85.5811 21.0801 86.4515 22.0092 87.8442 22.0092C89.1276 22.0092 89.6721 21.3827 89.8239 20.57H93.4787C93.1305 23.3088 91.1508 24.8644 87.7136 24.8644C84.1449 24.8644 81.5347 22.6357 81.5347 18.6662ZM89.6933 17.1349C89.6276 15.6724 88.9535 14.8596 87.6914 14.8596C86.5163 14.8596 85.7117 15.6724 85.5153 17.1349H89.6933Z" fill="#2524D1"/>
<path d="M95.2617 7.10681H99.1341V24.5851H95.2617V7.10681Z" fill="#2524D1"/>
<path d="M105.661 7.98932H111.426L116.364 24.586H111.644L110.817 21.4991H105.661L104.834 24.586H100.679L105.661 7.98932ZM106.531 18.2259H109.947L108.249 11.8424L106.531 18.2259Z" fill="#2524D1"/>
<path d="M117.713 9.15024C117.713 7.91951 118.627 6.99139 119.846 6.99139C121.065 6.99139 122 7.91951 122 9.15024C122 10.38 121.065 11.2858 119.846 11.2858C118.627 11.2858 117.713 10.38 117.713 9.15024ZM117.909 12.4457H121.803V24.585H117.909V12.4457Z" fill="#2524D1"/>
<g clip-path="url(#clip0_13119_12536)">
<path d="M30.9627 33.1728H1.40279C0.628523 33.1728 0 32.5452 0 31.77V2.21108C0 1.43681 0.627511 0.808289 1.40279 0.808289H30.9627C31.737 0.808289 32.3655 1.4358 32.3655 2.21108V31.771C32.3655 32.5452 31.738 33.1728 30.9627 33.1728Z" fill="#2524D1"/>
<path d="M24.4526 16.4466C24.4526 21.9596 20.7007 25.8401 15.3142 25.8401H7.9126V6.95197H15.0592C19.558 6.95197 22.9466 9.51263 24.0589 13.4842C24.1631 13.8536 24.2472 14.2341 24.3109 14.6269C24.404 15.2098 24.4526 15.8171 24.4526 16.4466Z" fill="#FFD31E"/>
<path d="M21.5336 18.1227C21.5367 18.1227 21.5367 18.1227 21.5387 18.1196C22.5923 17.1551 23.5467 15.983 24.3817 14.6258C24.318 14.2331 24.235 13.8535 24.1287 13.4841C23.5589 14.5124 22.9263 15.4365 22.237 16.2492C22.2573 16.1936 22.2725 16.1278 22.2725 16.0539C22.2725 15.8687 22.1834 15.6288 21.8727 15.3606C21.8727 15.3606 21.3565 16.1025 22.0953 16.4112C21.3737 17.2441 20.5944 17.9526 19.7634 18.5356C19.6521 18.6166 19.5377 18.6925 19.4213 18.7684L19.394 18.6824L17.6876 18.7178L17.7179 18.7147C17.7716 18.7097 17.8121 18.7016 17.8323 18.6975C18.1613 18.6014 20.1642 18.2036 20.6581 16.0589C20.6581 16.0589 21.5802 14.8231 21.8433 14.5651L22.6662 14.4254L23.066 14.3515L23.1297 14.3383L23.0002 14.2017V14.1987L22.9141 14.1045L22.6125 14.1015H22.5791L22.5569 14.0985H22.5235L21.8808 14.0803H21.8777L20.7513 13.7027C20.7513 13.7027 19.7867 13.4649 19.4547 14.0772C19.4547 14.0772 18.8677 14.6895 18.561 14.7604C18.2574 14.8312 15.8769 15.0671 15.5024 15.2766C15.5024 15.2766 13.9002 15.9851 13.6644 16.2442C13.6644 16.2442 13.2413 16.48 13.1938 16.2674L11.6847 13.7412L10.4641 11.7008C10.4641 11.7008 10.3376 11.2757 10.0157 11.7008C9.92666 11.8202 9.68679 11.6522 9.66351 11.891C9.63821 12.1238 9.203 12.051 9.27385 12.2382C9.30927 12.3374 10.2718 13.638 11.1675 14.8383C11.96 15.899 12.6989 16.8818 12.6989 16.8818C12.6989 16.8818 12.5804 17.3049 12.9569 17.4233C12.9569 17.4233 12.3466 18.2461 12.0865 18.3403L12.1098 18.6722C12.1098 18.6722 11.6412 18.7664 11.5936 18.9283C11.545 19.0933 11.3811 19.1894 11.3811 19.1894C11.3811 19.1894 12.9833 18.9637 13.6928 18.7967C13.7768 18.7785 13.8446 18.7583 13.9002 18.7411C14.4195 18.5761 13.8294 18.906 13.8294 18.906C13.8294 18.906 14.3334 18.8908 14.9893 18.8655L16.1411 20.1216L16.136 20.1975C15.3536 20.3878 14.546 20.4839 13.7181 20.4839C11.9003 20.4839 9.9712 20.0204 7.9834 19.0305V19.909C9.94286 20.8311 11.875 21.2764 13.7181 21.2764C16.0753 21.2764 18.2857 20.5446 20.2199 19.1823C20.478 19.0002 20.7341 18.8048 20.984 18.6004C21.0063 18.8008 21.0883 19.0356 21.2857 19.2633C21.483 19.4941 21.7998 19.7188 22.2957 19.904C22.2957 19.905 22.6733 18.4435 21.5336 18.1227ZM21.235 14.6744C21.2755 14.6258 21.3191 14.5752 21.3616 14.5296C21.4172 14.4709 21.4709 14.4234 21.5215 14.393C21.6561 14.3039 21.7897 14.1754 21.8484 14.1167L21.813 14.1572L22.0103 14.144L22.567 14.1086C22.4658 14.1218 22.154 14.1693 21.9668 14.223C21.7512 14.2837 21.4962 14.5013 21.4658 14.5296C21.4628 14.5327 21.4607 14.5327 21.4607 14.5327L21.3241 14.6592L21.0812 14.8798C21.0802 14.8788 21.147 14.7827 21.235 14.6744ZM20.5994 14.1248C20.7006 14.1248 20.7847 14.2088 20.7847 14.31C20.7847 14.4112 20.7006 14.4952 20.5994 14.4952C20.4982 14.4952 20.4173 14.4112 20.4173 14.31C20.4173 14.2078 20.4982 14.1248 20.5994 14.1248ZM11.2272 14.6794L9.40947 12.3627C9.40947 12.3627 9.54105 12.3779 9.51575 12.2564C9.49753 12.1704 10.4094 13.4011 11.2697 14.5782L12.7282 16.5883L11.2272 14.6794ZM12.3355 18.4111C12.3355 18.4111 14.9812 17.2917 15.2696 16.6976C15.2696 16.6976 15.9174 16.9304 16.2828 16.7229C16.6451 16.5154 17.9942 14.9304 18.4882 15.4517C18.4882 15.4517 19.1106 15.7887 18.6703 16.4901C18.6703 16.4901 18.7209 15.7887 18.5388 15.9183C18.3586 16.0478 18.3839 16.4628 17.8151 16.5407C17.2433 16.6197 17.0864 16.7482 16.9315 17.0093C16.7767 17.2674 15.9973 17.4496 15.7109 17.2168C15.5642 17.0974 15.4194 17.2269 15.3111 17.3838C15.1492 17.6217 14.9235 17.8089 14.6583 17.9233C13.9792 18.2056 12.7737 18.6459 12.3355 18.4111ZM14.8729 18.6743L14.4498 18.656C14.4498 18.656 18.3333 17.3595 18.5863 16.9445C18.5863 16.9445 19.2118 17.4708 19.2118 17.9142C19.2118 17.9152 18.0803 18.8089 14.8729 18.6743ZM16.6704 20.0538L16.4346 20.0406L15.1532 18.8605C15.7332 18.8372 16.3992 18.8068 16.9285 18.7765L16.6117 18.8423L18.475 18.9566L18.5357 19.2178L18.7969 18.9799L19.0448 19.0002C18.2878 19.4536 17.4932 19.8058 16.6704 20.0538Z" fill="#2524D1"/>
</g>
<defs>
<clipPath id="clip0_13119_12536">
<rect y="0.808289" width="32.3655" height="32.3645" rx="3.78131" fill="white"/>
</clipPath>
</defs>
</svg>
