<svg width="1312" height="218" viewBox="0 0 1312 218" fill="none" xmlns="http://www.w3.org/2000/svg">
<path d="M798.32 57.6602H839.913C853.001 57.6602 863.981 60.1557 872.855 65.1469C881.839 70.138 888.549 77.0147 892.986 85.7769C897.422 94.5391 899.64 104.632 899.64 116.056C899.64 127.37 897.422 137.407 892.986 146.17C888.549 154.932 881.839 161.809 872.855 166.8C863.981 171.68 853.001 174.12 839.913 174.12H798.32V57.6602ZM837.085 153.157C850.173 153.157 859.822 149.83 866.033 143.175C872.355 136.409 875.517 127.37 875.517 116.056C875.517 104.743 872.355 95.7037 866.033 88.938C859.822 82.0613 850.173 78.6229 837.085 78.6229H821.612V153.157H837.085Z" fill="url(#paint0_linear_58327_635)"/>
<path d="M910.387 87.607H932.182V104.078C933.734 97.7556 936.729 92.9863 941.166 89.7698C945.713 86.5533 951.647 85.1669 958.967 85.6105V106.74H955.806C949.151 106.74 943.661 108.847 939.335 113.062C935.01 117.166 932.847 122.767 932.847 129.865V174.12H910.387V87.607Z" fill="url(#paint1_linear_58327_635)"/>
<path d="M966.44 87.607H988.9V174.12H966.44V87.607ZM964.11 67.1433C964.11 63.4832 965.386 60.3776 967.937 57.8265C970.599 55.2755 973.815 54 977.587 54C981.469 54 984.685 55.2755 987.236 57.8265C989.787 60.3776 991.063 63.4832 991.063 67.1433C991.063 70.9144 989.787 74.0755 987.236 76.6265C984.685 79.1775 981.469 80.453 977.587 80.453C973.815 80.453 970.599 79.1775 967.937 76.6265C965.386 73.9646 964.11 70.8035 964.11 67.1433Z" fill="url(#paint2_linear_58327_635)"/>
<path d="M993.033 87.607H1019.65L1036.96 137.019C1038.51 141.234 1039.73 145.837 1040.62 150.828C1041.5 145.837 1042.72 141.234 1044.28 137.019L1061.58 87.607H1087.7L1051.76 174.12H1029.14L993.033 87.607Z" fill="url(#paint3_linear_58327_635)"/>
<path d="M1127.77 176.283C1119.01 176.283 1111.24 174.286 1104.48 170.293C1097.71 166.19 1092.44 160.699 1088.67 153.823C1084.9 146.946 1083.02 139.348 1083.02 131.03C1083.02 122.822 1084.96 115.225 1088.84 108.237C1092.72 101.249 1098.05 95.7037 1104.81 91.5999C1111.69 87.4961 1119.34 85.4442 1127.77 85.4442C1136.2 85.4442 1143.74 87.4961 1150.4 91.5999C1157.16 95.7037 1162.38 101.249 1166.04 108.237C1169.81 115.114 1171.69 122.711 1171.69 131.03C1171.69 133.803 1171.47 136.465 1171.03 139.016H1106.31C1107.64 144.229 1110.14 148.443 1113.8 151.66C1117.57 154.765 1122.22 156.318 1127.77 156.318C1132.43 156.318 1136.59 155.265 1140.25 153.157C1143.91 150.939 1146.79 148.111 1148.9 144.672L1166.37 157.816C1162.82 163.361 1157.61 167.853 1150.73 171.292C1143.85 174.619 1136.2 176.283 1127.77 176.283ZM1149.07 122.212C1147.73 117.221 1145.13 113.062 1141.25 109.734C1137.36 106.407 1132.76 104.743 1127.44 104.743C1122.22 104.743 1117.68 106.351 1113.8 109.568C1110.02 112.784 1107.53 116.999 1106.31 122.212H1149.07Z" fill="url(#paint4_linear_58327_635)"/>
<path d="M263.085 70.9632H227.234V48.3775H324.03V70.9632H288.18V173.854H263.085V70.9632Z" fill="black"/>
<path d="M306.59 80.6428H334.911L346.921 133.522C348.236 138.9 349.192 143.62 349.789 147.683C350.626 142.544 351.641 137.764 352.836 133.343L366.46 80.6428H394.244L408.763 133.343C409.958 137.764 410.974 142.544 411.81 147.683C412.408 143.62 413.364 138.9 414.678 133.522L427.584 80.6428H453.934L424.896 173.854H398.725L383.489 120.795C382.054 116.493 380.979 111.833 380.262 106.814C379.425 112.311 378.469 116.971 377.394 120.795L363.412 173.854H335.628L306.59 80.6428Z" fill="black"/>
<path d="M497.212 176.184C488.847 176.184 481.14 174.033 474.089 169.731C467.038 165.309 461.422 159.394 457.239 151.985C453.176 144.576 451.145 136.45 451.145 127.607C451.145 118.764 453.176 110.638 457.239 103.229C461.422 95.7 467.038 89.7249 474.089 85.3034C481.14 80.8818 488.847 78.6711 497.212 78.6711C504.86 78.6711 511.015 80.1051 515.675 82.9731C520.455 85.8411 524.16 89.9639 526.789 95.3414V80.6428H550.809V173.854H527.327V158.617C524.578 164.234 520.814 168.596 516.034 171.703C511.373 174.69 505.099 176.184 497.212 176.184ZM475.344 127.427C475.344 132.208 476.419 136.689 478.57 140.871C480.841 144.934 483.888 148.221 487.712 150.73C491.656 153.12 496.137 154.315 501.156 154.315C506.294 154.315 510.836 153.12 514.779 150.73C518.842 148.34 521.949 145.114 524.1 141.051C526.251 136.988 527.327 132.506 527.327 127.607C527.327 122.707 526.251 118.226 524.1 114.163C521.949 109.98 518.842 106.694 514.779 104.304C510.836 101.795 506.294 100.54 501.156 100.54C496.137 100.54 491.656 101.795 487.712 104.304C483.769 106.694 480.721 109.921 478.57 113.984C476.419 118.047 475.344 122.528 475.344 127.427Z" fill="black"/>
<path d="M589.385 129.578V173.854H565.187V43H589.385V118.286L624.34 80.6428H658.756L614.839 124.022L658.935 173.854H626.849L589.385 129.578Z" fill="black"/>
<path d="M698.046 176.184C688.605 176.184 680.24 174.033 672.95 169.731C665.661 165.309 659.984 159.394 655.921 151.985C651.858 144.576 649.827 136.39 649.827 127.427C649.827 118.584 651.918 110.399 656.101 102.87C660.283 95.3414 666.019 89.3664 673.309 84.9449C680.718 80.5233 688.963 78.3125 698.046 78.3125C707.128 78.3125 715.254 80.5233 722.424 84.9449C729.713 89.3664 735.33 95.3414 739.273 102.87C743.336 110.279 745.368 118.465 745.368 127.427C745.368 130.415 745.129 133.283 744.651 136.032H674.922C676.356 141.648 679.045 146.189 682.988 149.655C687.051 153.001 692.07 154.674 698.046 154.674C703.065 154.674 707.546 153.538 711.489 151.268C715.433 148.878 718.54 145.831 720.81 142.126L739.632 156.287C735.808 162.262 730.191 167.102 722.782 170.806C715.373 174.391 707.128 176.184 698.046 176.184ZM720.99 117.927C719.556 112.55 716.747 108.068 712.565 104.483C708.382 100.898 703.423 99.1057 697.687 99.1057C692.07 99.1057 687.171 100.838 682.988 104.304C678.925 107.77 676.237 112.311 674.922 117.927H720.99Z" fill="black"/>
<rect y="10.9999" width="196.105" height="196.105" rx="64.7641" fill="white"/>
<rect y="10.9999" width="196.105" height="196.105" rx="64.7641" fill="url(#paint5_linear_58327_635)"/>
<g filter="url(#filter0_d_58327_635)">
<path fill-rule="evenodd" clip-rule="evenodd" d="M98.0023 122.503C98.0023 121.971 97.9894 121.44 97.9635 120.908C97.9371 120.377 97.8982 119.847 97.8459 119.317C97.7936 118.788 97.7288 118.26 97.6506 117.734C97.5729 117.208 97.4817 116.684 97.378 116.162C97.2744 115.64 97.1577 115.122 97.0286 114.606C96.8994 114.09 96.7573 113.578 96.6031 113.068C96.4485 112.559 96.2818 112.054 96.1026 111.554C95.9234 111.053 95.7321 110.557 95.5283 110.065C95.325 109.574 95.1096 109.088 94.8821 108.607C94.6547 108.126 94.4156 107.651 94.1649 107.182C93.9142 106.713 93.6519 106.25 93.3784 105.794C93.1049 105.338 92.8206 104.889 92.5252 104.446C92.2294 104.004 91.9233 103.569 91.6064 103.142C91.2896 102.715 90.9624 102.296 90.625 101.885C90.2876 101.473 89.9404 101.07 89.5829 100.677C89.2258 100.282 88.8594 99.8972 88.4831 99.521C88.1068 99.1451 87.722 98.7782 87.3279 98.4212C86.9337 98.0641 86.5311 97.7164 86.1199 97.379C85.7088 97.0416 85.2896 96.7145 84.8624 96.3976C84.4351 96.0808 84.0003 95.7747 83.5579 95.4793C83.1155 95.1834 82.6663 94.8992 82.2101 94.6257C81.7538 94.3522 81.2913 94.0903 80.822 93.8396C80.3532 93.5885 79.8782 93.3494 79.3973 93.1224C78.9165 92.8949 78.4303 92.6795 77.9391 92.4757C77.4475 92.2724 76.9515 92.0807 76.4505 91.9014C75.9496 91.7222 75.445 91.5556 74.936 91.4014C74.427 91.2468 73.9144 91.1051 73.3983 90.9759C72.8825 90.8463 72.3637 90.7301 71.8417 90.626C71.3202 90.5223 70.7964 90.4316 70.27 90.3534C69.744 90.2756 69.2162 90.2104 68.6871 90.1581C68.1575 90.1063 67.6271 90.067 67.0962 90.041C66.5648 90.0147 66.033 90.0017 65.5012 90.0017C64.9694 90.0017 64.4377 90.0147 63.9065 90.041C63.3752 90.067 62.8449 90.1063 62.3155 90.1581C61.7862 90.2104 61.2585 90.2756 60.7323 90.3534C60.2062 90.4316 59.6822 90.5223 59.1606 90.626C58.6389 90.7301 58.12 90.8463 57.6041 90.9759C57.0881 91.1051 56.5756 91.2468 56.0667 91.4014C55.5576 91.5556 55.0527 91.7222 54.5519 91.9014C54.0511 92.0807 53.5549 92.2724 53.0635 92.4757C52.5721 92.6795 52.086 92.8949 51.6051 93.1224C51.1243 93.3494 50.6494 93.5885 50.1803 93.8396C49.7112 94.0903 49.2485 94.3522 48.7923 94.6257C48.336 94.8992 47.8868 95.1834 47.4445 95.4793C47.0022 95.7747 46.5675 96.0808 46.1402 96.3976C45.713 96.7145 45.2938 97.0416 44.8826 97.379C44.4715 97.7164 44.0688 98.0641 43.6747 98.4212C43.2806 98.7782 42.8955 99.1451 42.5194 99.521C42.1433 99.8972 41.7766 100.282 41.4194 100.677C41.0622 101.07 40.7149 101.473 40.3775 101.885C40.04 102.296 39.7129 102.715 39.396 103.142C39.0791 103.569 38.773 104.004 38.4775 104.446C38.1819 104.889 37.8974 105.338 37.624 105.794C37.3505 106.25 37.0884 106.713 36.8377 107.182C36.587 107.651 36.3479 108.126 36.1205 108.607C35.893 109.088 35.6776 109.574 35.474 110.065C35.2704 110.557 35.0791 111.053 34.8999 111.554C34.7207 112.054 34.5539 112.559 34.3995 113.068C34.2451 113.578 34.1033 114.09 33.974 114.606C33.8448 115.122 33.7283 115.64 33.6245 116.162C33.5207 116.684 33.4298 117.208 33.3518 117.734C33.2737 118.26 33.2087 118.788 33.1565 119.317C33.1043 119.847 33.0652 120.377 33.0391 120.908C33.013 121.44 33 121.971 33 122.503C33 123.035 33.013 123.566 33.0391 124.098C33.0652 124.629 33.1043 125.159 33.1565 125.689C33.2087 126.218 33.2737 126.746 33.3518 127.272C33.4298 127.798 33.5207 128.322 33.6245 128.844C33.7283 129.365 33.8448 129.884 33.974 130.4C34.1033 130.916 34.2451 131.429 34.3995 131.938C34.5539 132.447 34.7207 132.952 34.8999 133.452C35.0791 133.953 35.2704 134.449 35.474 134.941C35.6776 135.432 35.893 135.918 36.1205 136.399C36.3479 136.88 36.587 137.355 36.8377 137.824C37.0884 138.293 37.3505 138.756 37.624 139.212C37.8974 139.668 38.1819 140.118 38.4775 140.56C38.773 141.002 39.0791 141.437 39.396 141.864C39.7129 142.291 40.04 142.71 40.3775 143.122C40.7149 143.533 41.0622 143.935 41.4194 144.329C41.7766 144.724 42.1433 145.109 42.5194 145.485C42.8955 145.861 43.2806 146.227 43.6747 146.585C44.0688 146.942 44.4715 147.289 44.8826 147.627C45.2938 147.964 45.713 148.291 46.1402 148.608C46.5675 148.925 47.0022 149.231 47.4445 149.527C47.8868 149.822 48.336 150.107 48.7923 150.38C49.2485 150.653 49.7112 150.916 50.1803 151.166C50.6494 151.417 51.1243 151.656 51.6051 151.884C52.086 152.111 52.5721 152.327 53.0635 152.53C53.5549 152.734 54.0511 152.925 54.5519 153.104C55.0527 153.283 55.5576 153.45 56.0667 153.605C56.5756 153.759 57.0881 153.901 57.6041 154.03C58.12 154.159 58.6389 154.276 59.1606 154.38C59.6822 154.483 60.2062 154.574 60.7323 154.652C61.2585 154.73 61.7862 154.796 62.3155 154.848C62.8449 154.9 63.3752 154.939 63.9065 154.965C64.4377 154.991 64.9694 155.004 65.5012 155.004H117.503V122.503H98.0023Z" fill="white"/>
<path d="M117.498 155.003C142.628 155.003 163 134.632 163 109.502C163 84.3716 142.628 64 117.498 64C92.3681 64 71.9961 84.3716 71.9961 109.502C71.9961 134.632 92.3681 155.003 117.498 155.003Z" fill="white"/>
</g>
<path d="M1202.45 176V144.568H1213.96C1216.19 144.568 1218.04 144.936 1219.5 145.673C1220.97 146.399 1222.06 147.387 1222.79 148.635C1223.52 149.873 1223.88 151.27 1223.88 152.825C1223.88 154.135 1223.64 155.24 1223.16 156.14C1222.68 157.03 1222.03 157.746 1221.22 158.289C1220.43 158.821 1219.55 159.21 1218.58 159.455V159.762C1219.63 159.813 1220.65 160.151 1221.64 160.775C1222.64 161.389 1223.47 162.264 1224.12 163.4C1224.78 164.535 1225.11 165.917 1225.11 167.543C1225.11 169.15 1224.73 170.592 1223.97 171.871C1223.22 173.14 1222.07 174.148 1220.5 174.895C1218.94 175.632 1216.94 176 1214.5 176H1202.45ZM1207.2 171.933H1214.04C1216.31 171.933 1217.94 171.493 1218.92 170.613C1219.9 169.733 1220.39 168.633 1220.39 167.313C1220.39 166.321 1220.14 165.41 1219.64 164.581C1219.14 163.753 1218.43 163.093 1217.49 162.601C1216.57 162.11 1215.48 161.865 1214.21 161.865H1207.2V171.933ZM1207.2 158.166H1213.55C1214.61 158.166 1215.57 157.961 1216.42 157.552C1217.28 157.143 1217.96 156.57 1218.46 155.833C1218.97 155.086 1219.23 154.206 1219.23 153.193C1219.23 151.894 1218.77 150.804 1217.86 149.924C1216.95 149.044 1215.56 148.604 1213.67 148.604H1207.2V158.166ZM1232.03 176V144.568H1251.73V148.65H1236.77V158.227H1250.71V162.295H1236.77V171.918H1251.92V176H1232.03ZM1257.82 148.65V144.568H1282.14V148.65H1272.33V176H1267.61V148.65H1257.82ZM1287.75 176H1282.72L1294.03 144.568H1299.51L1310.82 176H1305.79L1296.9 150.277H1296.66L1287.75 176ZM1288.6 163.691H1304.93V167.682H1288.6V163.691Z" fill="#97A3B7"/>
<defs>
<filter id="filter0_d_58327_635" x="23" y="56" width="150" height="111.004" filterUnits="userSpaceOnUse" color-interpolation-filters="sRGB">
<feFlood flood-opacity="0" result="BackgroundImageFix"/>
<feColorMatrix in="SourceAlpha" type="matrix" values="0 0 0 0 0 0 0 0 0 0 0 0 0 0 0 0 0 0 127 0" result="hardAlpha"/>
<feOffset dy="2"/>
<feGaussianBlur stdDeviation="5"/>
<feComposite in2="hardAlpha" operator="out"/>
<feColorMatrix type="matrix" values="0 0 0 0 0 0 0 0 0 0 0 0 0 0 0 0 0 0 0.1 0"/>
<feBlend mode="normal" in2="BackgroundImageFix" result="effect1_dropShadow_58327_635"/>
<feBlend mode="normal" in="SourceGraphic" in2="effect1_dropShadow_58327_635" result="shape"/>
</filter>
<linearGradient id="paint0_linear_58327_635" x1="970.502" y1="23" x2="970.502" y2="191.5" gradientUnits="userSpaceOnUse">
<stop stop-color="#FF6372"/>
<stop offset="1" stop-color="#FF3347"/>
</linearGradient>
<linearGradient id="paint1_linear_58327_635" x1="970.502" y1="23" x2="970.502" y2="191.5" gradientUnits="userSpaceOnUse">
<stop stop-color="#FF6372"/>
<stop offset="1" stop-color="#FF3347"/>
</linearGradient>
<linearGradient id="paint2_linear_58327_635" x1="970.502" y1="23" x2="970.502" y2="191.5" gradientUnits="userSpaceOnUse">
<stop stop-color="#FF6372"/>
<stop offset="1" stop-color="#FF3347"/>
</linearGradient>
<linearGradient id="paint3_linear_58327_635" x1="970.502" y1="23" x2="970.502" y2="191.5" gradientUnits="userSpaceOnUse">
<stop stop-color="#FF6372"/>
<stop offset="1" stop-color="#FF3347"/>
</linearGradient>
<linearGradient id="paint4_linear_58327_635" x1="970.502" y1="23" x2="970.502" y2="191.5" gradientUnits="userSpaceOnUse">
<stop stop-color="#FF6372"/>
<stop offset="1" stop-color="#FF3347"/>
</linearGradient>
<linearGradient id="paint5_linear_58327_635" x1="21.5" y1="188.5" x2="235.5" y2="-26.0001" gradientUnits="userSpaceOnUse">
<stop offset="0.248154" stop-color="#FF4759"/>
<stop offset="1" stop-color="#FFD600"/>
</linearGradient>
</defs>
</svg>
