<svg width="42" height="43" viewBox="0 0 42 43" fill="none" xmlns="http://www.w3.org/2000/svg">
<rect y="0.576172" width="42" height="42" rx="14.2009" fill="white"/>
<rect y="0.576172" width="42" height="42" rx="14.2009" fill="url(#paint0_linear_1954_141)"/>
<g filter="url(#filter0_d_1954_141)">
<path fill-rule="evenodd" clip-rule="evenodd" d="M8.62978 12.1548C8 13.3906 8 15.0086 8 18.2444V25.7556C8 28.9914 8 30.6094 8.62978 31.8452C9.18367 32.9324 10.0676 33.8163 11.1548 34.3702C12.3906 35 14.0086 35 17.2444 35H24.7556C27.9914 35 29.6094 35 30.8452 34.3702C31.9324 33.8163 32.8163 32.9324 33.3702 31.8452C34 30.6094 34 28.9914 34 25.7556V18.2444C34 15.0086 34 13.3906 33.3702 12.1548C32.8163 11.0676 31.9324 10.1837 30.8452 9.62978C29.6094 9 27.9914 9 24.7556 9H17.2444C14.0086 9 12.3906 9 11.1548 9.62978C10.0676 10.1837 9.18367 11.0676 8.62978 12.1548ZM21 14.7778C22.9952 14.7778 24.6111 16.3937 24.6111 18.3889C24.6111 20.3841 22.9952 22 21 22C19.0048 22 17.3889 20.3841 17.3889 18.3889C17.3889 16.3937 19.0048 14.7778 21 14.7778ZM13.7778 28.3149V27.4444C13.7778 24.3334 18.5896 23.4444 21 23.4444C23.4104 23.4444 28.2222 24.3334 28.2222 27.4444V28.3149C28.2222 28.816 27.816 29.2222 27.3149 29.2222H14.6851C14.184 29.2222 13.7778 28.816 13.7778 28.3149Z" fill="white"/>
</g>
<defs>
<filter id="filter0_d_1954_141" x="5.80729" y="7.24583" width="30.3854" height="30.3854" filterUnits="userSpaceOnUse" color-interpolation-filters="sRGB">
<feFlood flood-opacity="0" result="BackgroundImageFix"/>
<feColorMatrix in="SourceAlpha" type="matrix" values="0 0 0 0 0 0 0 0 0 0 0 0 0 0 0 0 0 0 127 0" result="hardAlpha"/>
<feOffset dy="0.438541"/>
<feGaussianBlur stdDeviation="1.09635"/>
<feComposite in2="hardAlpha" operator="out"/>
<feColorMatrix type="matrix" values="0 0 0 0 0 0 0 0 0 0 0 0 0 0 0 0 0 0 0.1 0"/>
<feBlend mode="normal" in2="BackgroundImageFix" result="effect1_dropShadow_1954_141"/>
<feBlend mode="normal" in="SourceGraphic" in2="effect1_dropShadow_1954_141" result="shape"/>
</filter>
<linearGradient id="paint0_linear_1954_141" x1="7.28183" y1="38.8058" x2="39.6217" y2="3.14623" gradientUnits="userSpaceOnUse">
<stop offset="0.229502" stop-color="#F74EA9"/>
<stop offset="1" stop-color="#FFB2A8"/>
</linearGradient>
</defs>
</svg>
