<svg width="42" height="43" viewBox="0 0 42 43" fill="none" xmlns="http://www.w3.org/2000/svg">
<rect y="0.955078" width="42" height="42" rx="14.2009" fill="white"/>
<rect y="0.955078" width="42" height="42" rx="14.2009" fill="url(#paint0_linear_1954_129)"/>
<g filter="url(#filter0_d_1954_129)">
<path fill-rule="evenodd" clip-rule="evenodd" d="M20.989 24.8358C20.989 24.7219 20.9862 24.6081 20.9807 24.4943C20.975 24.3805 20.9667 24.2669 20.9555 24.1536C20.9443 24.0402 20.9304 23.9271 20.9137 23.8145C20.897 23.7018 20.8775 23.5896 20.8553 23.4779C20.8331 23.3661 20.8081 23.255 20.7805 23.1445C20.7528 23.0339 20.7224 22.9243 20.6893 22.8152C20.6562 22.7062 20.6205 22.5981 20.5821 22.4908C20.5438 22.3836 20.5028 22.2772 20.4592 22.1721C20.4156 22.0668 20.3695 21.9626 20.3208 21.8597C20.272 21.7567 20.2208 21.655 20.1671 21.5545C20.1135 21.454 20.0573 21.355 19.9987 21.2573C19.9401 21.1595 19.8792 21.0633 19.816 20.9686C19.7526 20.8738 19.6871 20.7808 19.6192 20.6893C19.5513 20.5978 19.4813 20.508 19.409 20.42C19.3368 20.3318 19.2624 20.2456 19.1858 20.1613C19.1093 20.0768 19.0309 19.9943 18.9503 19.9138C18.8697 19.8333 18.7873 19.7547 18.7029 19.6782C18.6184 19.6017 18.5322 19.5273 18.4441 19.455C18.3561 19.3827 18.2663 19.3127 18.1748 19.2448C18.0833 19.177 17.9902 19.1114 17.8954 19.0481C17.8007 18.9848 17.7045 18.9239 17.6068 18.8653C17.509 18.8068 17.41 18.7507 17.3095 18.697C17.2091 18.6432 17.1073 18.592 17.0044 18.5434C16.9014 18.4946 16.7972 18.4485 16.6921 18.4049C16.5868 18.3613 16.4805 18.3203 16.3732 18.2819C16.2659 18.2435 16.1579 18.2078 16.0489 18.1748C15.9399 18.1417 15.8301 18.1113 15.7195 18.0837C15.6091 18.0559 15.498 18.031 15.3862 18.0087C15.2745 17.9865 15.1623 17.9671 15.0495 17.9503C14.9369 17.9337 14.8239 17.9197 14.7105 17.9085C14.5971 17.8974 14.4835 17.889 14.3698 17.8834C14.256 17.8778 14.1421 17.875 14.0282 17.875C13.9143 17.875 13.8004 17.8778 13.6867 17.8834C13.5729 17.889 13.4593 17.8974 13.3459 17.9085C13.2326 17.9197 13.1195 17.9337 13.0069 17.9503C12.8942 17.9671 12.782 17.9865 12.6702 18.0087C12.5585 18.031 12.4474 18.0559 12.3369 18.0837C12.2264 18.1113 12.1166 18.1417 12.0076 18.1748C11.8986 18.2078 11.7904 18.2435 11.6832 18.2819C11.5759 18.3203 11.4697 18.3613 11.3644 18.4049C11.2592 18.4485 11.1551 18.4946 11.0521 18.5434C10.9491 18.592 10.8474 18.6432 10.7469 18.697C10.6464 18.7507 10.5473 18.8068 10.4496 18.8653C10.3519 18.9239 10.2557 18.9848 10.161 19.0481C10.0663 19.1114 9.97316 19.177 9.88165 19.2448C9.79015 19.3127 9.70037 19.3827 9.6123 19.455C9.52425 19.5273 9.43801 19.6017 9.3536 19.6782C9.2692 19.7547 9.18672 19.8333 9.10617 19.9138C9.02561 19.9943 8.94708 20.0768 8.87058 20.1613C8.79408 20.2456 8.7197 20.3318 8.64743 20.42C8.57515 20.508 8.50508 20.5978 8.43722 20.6893C8.36936 20.7808 8.30378 20.8738 8.2405 20.9686C8.17721 21.0633 8.11628 21.1595 8.05771 21.2573C7.99914 21.355 7.94301 21.454 7.88931 21.5545C7.83561 21.655 7.78441 21.7567 7.7357 21.8597C7.68699 21.9626 7.64084 22.0668 7.59724 22.1721C7.55365 22.2772 7.51266 22.3836 7.47428 22.4908C7.43591 22.5981 7.40018 22.7062 7.36711 22.8152C7.33404 22.9243 7.30368 23.0339 7.27599 23.1445C7.24831 23.255 7.22335 23.3661 7.20113 23.4779C7.17891 23.5896 7.15944 23.7018 7.14273 23.8145C7.12601 23.9271 7.11207 24.0402 7.1009 24.1536C7.08973 24.2669 7.08136 24.3805 7.07577 24.4943C7.07018 24.6081 7.06738 24.7219 7.06738 24.8358C7.06738 24.9497 7.07018 25.0636 7.07577 25.1774C7.08136 25.2912 7.08973 25.4047 7.1009 25.5181C7.11207 25.6315 7.12601 25.7445 7.14273 25.8572C7.15944 25.9699 7.17891 26.0821 7.20113 26.1939C7.22335 26.3056 7.24831 26.4167 7.27599 26.5272C7.30368 26.6377 7.33404 26.7475 7.36711 26.8565C7.40018 26.9655 7.43591 27.0736 7.47428 27.1808C7.51266 27.2881 7.55365 27.3944 7.59724 27.4997C7.64084 27.6048 7.68699 27.709 7.7357 27.812C7.78441 27.9149 7.83561 28.0167 7.88931 28.1172C7.94301 28.2176 7.99914 28.3167 8.05771 28.4144C8.11628 28.5121 8.17721 28.6084 8.2405 28.703C8.30378 28.7978 8.36936 28.8909 8.43722 28.9824C8.50508 29.0739 8.57515 29.1637 8.64743 29.2517C8.7197 29.3398 8.79408 29.426 8.87058 29.5105C8.94708 29.5949 9.02561 29.6774 9.10617 29.7579C9.18672 29.8385 9.2692 29.9169 9.3536 29.9935C9.43801 30.07 9.52425 30.1443 9.6123 30.2166C9.70037 30.2889 9.79015 30.3589 9.88165 30.4268C9.97316 30.4947 10.0663 30.5602 10.161 30.6236C10.2557 30.6868 10.3519 30.7478 10.4496 30.8063C10.5473 30.8649 10.6464 30.921 10.7469 30.9747C10.8474 31.0284 10.9491 31.0796 11.0521 31.1284C11.1551 31.1771 11.2592 31.2232 11.3644 31.2669C11.4697 31.3104 11.5759 31.3514 11.6832 31.3897C11.7904 31.4281 11.8986 31.4638 12.0076 31.4969C12.1166 31.53 12.2264 31.5604 12.3369 31.5881C12.4474 31.6157 12.5585 31.6407 12.6702 31.6629C12.782 31.6851 12.8942 31.7046 13.0069 31.7213C13.1195 31.738 13.2326 31.752 13.3459 31.7631C13.4593 31.7743 13.5729 31.7827 13.6867 31.7883C13.8004 31.7938 13.9143 31.7967 14.0282 31.7967H25.1656V24.8358H20.989Z" fill="white"/>
<path d="M25.1631 31.7969C30.5453 31.7969 34.9084 27.4339 34.9084 22.0518C34.9084 16.6696 30.5453 12.3066 25.1631 12.3066C19.7811 12.3066 15.418 16.6696 15.418 22.0518C15.418 27.4339 19.7811 31.7969 25.1631 31.7969Z" fill="white"/>
</g>
<defs>
<filter id="filter0_d_1954_129" x="4.87468" y="10.5525" width="32.2262" height="23.8756" filterUnits="userSpaceOnUse" color-interpolation-filters="sRGB">
<feFlood flood-opacity="0" result="BackgroundImageFix"/>
<feColorMatrix in="SourceAlpha" type="matrix" values="0 0 0 0 0 0 0 0 0 0 0 0 0 0 0 0 0 0 127 0" result="hardAlpha"/>
<feOffset dy="0.438541"/>
<feGaussianBlur stdDeviation="1.09635"/>
<feComposite in2="hardAlpha" operator="out"/>
<feColorMatrix type="matrix" values="0 0 0 0 0 0 0 0 0 0 0 0 0 0 0 0 0 0 0.1 0"/>
<feBlend mode="normal" in2="BackgroundImageFix" result="effect1_dropShadow_1954_129"/>
<feBlend mode="normal" in="SourceGraphic" in2="effect1_dropShadow_1954_129" result="shape"/>
</filter>
<linearGradient id="paint0_linear_1954_129" x1="4.60468" y1="38.9705" x2="50.4373" y2="-6.96926" gradientUnits="userSpaceOnUse">
<stop offset="0.248154" stop-color="#FF4759"/>
<stop offset="1" stop-color="#FFD600"/>
</linearGradient>
</defs>
</svg>
