<svg width="42" height="42" viewBox="0 0 42 42" fill="none" xmlns="http://www.w3.org/2000/svg">
<rect width="42" height="42" rx="14.2009" fill="white"/>
<rect width="42" height="42" rx="14.2009" fill="url(#paint0_linear_1954_122)"/>
<g filter="url(#filter0_d_1954_122)">
<path fill-rule="evenodd" clip-rule="evenodd" d="M9.61213 15.6294C8.5962 16.4042 8 17.6087 8 18.8863V28.9393C8 31.6538 10.2005 33.8544 12.915 33.8544H29.085C31.7995 33.8544 34 31.6538 34 28.9393V18.8863C34 17.6087 33.4038 16.4042 32.3879 15.6294L23.4837 8.839C22.0169 7.72033 19.9831 7.72033 18.5163 8.839L9.61213 15.6294ZM10.8889 18.2752V29.3834C10.8889 30.2883 11.6224 31.0218 12.5272 31.0218H29.4728C30.3776 31.0218 31.1111 30.2883 31.1111 29.3834V18.2752L22.8797 24.0401C21.7512 24.8305 20.2488 24.8305 19.1203 24.0401L10.8889 18.2752Z" fill="white"/>
</g>
<defs>
<filter id="filter0_d_1954_122" x="5.80729" y="6.24583" width="30.3854" height="30.2389" filterUnits="userSpaceOnUse" color-interpolation-filters="sRGB">
<feFlood flood-opacity="0" result="BackgroundImageFix"/>
<feColorMatrix in="SourceAlpha" type="matrix" values="0 0 0 0 0 0 0 0 0 0 0 0 0 0 0 0 0 0 127 0" result="hardAlpha"/>
<feOffset dy="0.438541"/>
<feGaussianBlur stdDeviation="1.09635"/>
<feComposite in2="hardAlpha" operator="out"/>
<feColorMatrix type="matrix" values="0 0 0 0 0 0 0 0 0 0 0 0 0 0 0 0 0 0 0.1 0"/>
<feBlend mode="normal" in2="BackgroundImageFix" result="effect1_dropShadow_1954_122"/>
<feBlend mode="normal" in="SourceGraphic" in2="effect1_dropShadow_1954_122" result="shape"/>
</filter>
<linearGradient id="paint0_linear_1954_122" x1="5.88971" y1="37.5871" x2="41.0138" y2="2.03463" gradientUnits="userSpaceOnUse">
<stop stop-color="#1E91FF"/>
<stop offset="0.997303" stop-color="#2ED9FF"/>
</linearGradient>
</defs>
</svg>
