<svg width="42" height="42" viewBox="0 0 42 42" fill="none" xmlns="http://www.w3.org/2000/svg">
<g clip-path="url(#clip0_1954_116)">
<rect width="42.0224" height="42.0224" rx="14.2009" fill="white"/>
<rect width="42.0224" height="42.0224" rx="14.2009" fill="url(#paint0_linear_1954_116)"/>
<g filter="url(#filter0_d_1954_116)">
<path d="M21 9C28.1797 9 34 14.0266 34 20.2273C34 26.4279 28.1797 31.4545 21 31.4545C19.528 31.4545 18.1131 31.2433 16.7938 30.8539C15.3196 32.0004 13.0331 32.963 9.93511 33.7401C9.78843 33.7769 9.63324 33.7564 9.50119 33.6827C9.21476 33.5228 9.11213 33.1611 9.27197 32.8746L9.49368 32.4722C10.5225 30.5792 11.1644 29.0266 11.4194 27.8145C9.29551 25.8167 8 23.1527 8 20.2273C8 14.0266 13.8203 9 21 9Z" fill="white"/>
</g>
</g>
<defs>
<filter id="filter0_d_1954_116" x="5.80729" y="7.24583" width="30.3854" height="29.1432" filterUnits="userSpaceOnUse" color-interpolation-filters="sRGB">
<feFlood flood-opacity="0" result="BackgroundImageFix"/>
<feColorMatrix in="SourceAlpha" type="matrix" values="0 0 0 0 0 0 0 0 0 0 0 0 0 0 0 0 0 0 127 0" result="hardAlpha"/>
<feOffset dy="0.438541"/>
<feGaussianBlur stdDeviation="1.09635"/>
<feComposite in2="hardAlpha" operator="out"/>
<feColorMatrix type="matrix" values="0 0 0 0 0 0 0 0 0 0 0 0 0 0 0 0 0 0 0.1 0"/>
<feBlend mode="normal" in2="BackgroundImageFix" result="effect1_dropShadow_1954_116"/>
<feBlend mode="normal" in="SourceGraphic" in2="effect1_dropShadow_1954_116" result="shape"/>
</filter>
<linearGradient id="paint0_linear_1954_116" x1="5.67857" y1="38.5714" x2="39.4286" y2="-7.73e-07" gradientUnits="userSpaceOnUse">
<stop stop-color="#8135FE"/>
<stop offset="1" stop-color="#E8A6FF"/>
</linearGradient>
<clipPath id="clip0_1954_116">
<rect width="42" height="42" fill="white"/>
</clipPath>
</defs>
</svg>
