<svg width="42" height="42" viewBox="0 0 42 42" fill="none" xmlns="http://www.w3.org/2000/svg">
<rect width="42" height="42" rx="14.2009" fill="white"/>
<rect width="42" height="42" rx="14.2009" fill="url(#paint0_linear_1954_146)"/>
<g filter="url(#filter0_d_1954_146)">
<path d="M8 18.88C8 16.4718 8 15.2677 8.45341 14.3478C8.85225 13.5387 9.48865 12.8809 10.2714 12.4687C11.1613 12 12.3262 12 14.656 12H20.064C22.3938 12 23.5587 12 24.4486 12.4687C25.2314 12.8809 25.8678 13.5387 26.2666 14.3478C26.72 15.2677 26.72 16.4718 26.72 18.88V22.32C26.72 24.7282 26.72 25.9323 26.2666 26.8522C25.8678 27.6613 25.2314 28.3191 24.4486 28.7313C23.5587 29.2 22.3938 29.2 20.064 29.2H14.656C12.3262 29.2 11.1613 29.2 10.2714 28.7313C9.48865 28.3191 8.85225 27.6613 8.45341 26.8522C8 25.9323 8 24.7282 8 22.32V18.88Z" fill="white"/>
<path d="M28.8 17.8925C28.8 17.7044 28.8 17.6103 28.8272 17.5268C28.8513 17.4529 28.8906 17.3854 28.9425 17.3288C29.0012 17.2648 29.0816 17.2207 29.2424 17.1326L31.5568 15.8647C32.3629 15.4231 32.766 15.2023 33.0949 15.2467C33.382 15.2856 33.6404 15.4463 33.808 15.6903C34 15.9698 34 16.4414 34 17.3845V23.8155C34 24.7586 34 25.2302 33.808 25.5097C33.6404 25.7537 33.382 25.9144 33.0949 25.9533C32.766 25.9977 32.3629 25.7769 31.5568 25.3353L29.2424 24.0673C29.0816 23.9792 29.0012 23.9352 28.9425 23.8712C28.8906 23.8146 28.8513 23.7471 28.8272 23.6732C28.8 23.5897 28.8 23.4956 28.8 23.3075V17.8925Z" fill="white"/>
</g>
<defs>
<filter id="filter0_d_1954_146" x="5.80729" y="10.2458" width="30.3854" height="21.5846" filterUnits="userSpaceOnUse" color-interpolation-filters="sRGB">
<feFlood flood-opacity="0" result="BackgroundImageFix"/>
<feColorMatrix in="SourceAlpha" type="matrix" values="0 0 0 0 0 0 0 0 0 0 0 0 0 0 0 0 0 0 127 0" result="hardAlpha"/>
<feOffset dy="0.438541"/>
<feGaussianBlur stdDeviation="1.09635"/>
<feComposite in2="hardAlpha" operator="out"/>
<feColorMatrix type="matrix" values="0 0 0 0 0 0 0 0 0 0 0 0 0 0 0 0 0 0 0.1 0"/>
<feBlend mode="normal" in2="BackgroundImageFix" result="effect1_dropShadow_1954_146"/>
<feBlend mode="normal" in="SourceGraphic" in2="effect1_dropShadow_1954_146" result="shape"/>
</filter>
<linearGradient id="paint0_linear_1954_146" x1="4.92594" y1="38.0154" x2="47.9744" y2="-6.31805" gradientUnits="userSpaceOnUse">
<stop offset="0.23798" stop-color="#50C750"/>
<stop offset="1" stop-color="#EBFF00"/>
</linearGradient>
</defs>
</svg>
